<svg width="44" height="44" viewBox="0 0 44 44" fill="none" xmlns="http://www.w3.org/2000/svg">
<path d="M27.1287 38.4681C27.8073 40.5835 26.6434 42.864 24.4474 43.1102C21.2762 43.4657 18.0386 43.121 14.9694 42.0799C10.6219 40.6053 6.83426 37.8087 4.14635 34.0886C1.45844 30.3686 0.00740477 25.915 2.91562e-05 21.3625C-0.00734643 16.8101 1.42932 12.3911 4.10528 8.73531C6.78123 5.07954 10.5599 2.37356 14.9028 1.00301C19.2457 -0.367533 23.9313 -0.332707 28.2916 1.10253C32.6519 2.53776 36.4646 5.30017 39.1862 8.99606C41.1062 11.6033 42.4141 14.5813 43.0352 17.7078C43.4668 19.8798 41.6579 21.6803 39.4487 21.6739L30.0587 21.6469C28.2903 21.6418 26.9051 20.0733 25.8497 18.6401C25.2068 17.767 24.3062 17.1145 23.2762 16.7754C22.2462 16.4364 21.1393 16.4282 20.1134 16.7519C19.0875 17.0757 18.1949 17.7149 17.5628 18.5785C16.9307 19.4421 16.5913 20.4859 16.593 21.5613C16.5948 22.6367 16.9375 23.6888 17.5725 24.5675C18.2074 25.4463 19.1022 26.1069 20.1292 26.4553C21.8186 27.0283 23.7328 27.8819 24.2775 29.58L27.1287 38.4681Z" fill="#E7BC0F"/>
</svg>
