<svg width="28" height="28" viewBox="0 0 28 28" fill="none" xmlns="http://www.w3.org/2000/svg">
<path d="M14.0233 23.9516C11.3049 23.9516 8.5866 23.52 6.00826 22.6566C5.02826 22.3183 4.2816 21.63 3.95493 20.7316C3.6166 19.8333 3.73326 18.8416 4.26993 17.955L5.6116 15.7266C5.8916 15.26 6.14826 14.3266 6.14826 13.7783V10.4066C6.14826 6.06665 9.68326 2.53165 14.0233 2.53165C18.3633 2.53165 21.8983 6.06665 21.8983 10.4066V13.7783C21.8983 14.315 22.1549 15.26 22.4349 15.7383L23.7649 17.955C24.2666 18.795 24.3599 19.81 24.0216 20.7316C23.6833 21.6533 22.9483 22.3533 22.0266 22.6566C19.4599 23.52 16.7416 23.9516 14.0233 23.9516ZM14.0233 4.28165C10.6516 4.28165 7.89826 7.02331 7.89826 10.4066V13.7783C7.89826 14.63 7.54826 15.89 7.1166 16.625L5.77493 18.8533C5.51826 19.285 5.44826 19.74 5.59993 20.125C5.73993 20.5216 6.08993 20.825 6.56826 20.9883C11.4449 22.6216 16.6133 22.6216 21.4899 20.9883C21.9099 20.8483 22.2366 20.5333 22.3883 20.1133C22.5399 19.6933 22.5049 19.2383 22.2716 18.8533L20.9299 16.625C20.4866 15.8666 20.1483 14.6183 20.1483 13.7666V10.4066C20.1483 7.02331 17.4066 4.28165 14.0233 4.28165Z" fill="white"/>
<path d="M16.1934 4.59665C16.1117 4.59665 16.0301 4.58498 15.9484 4.56165C15.6101 4.46831 15.2834 4.39831 14.9684 4.35165C13.9767 4.22331 13.0201 4.29331 12.1217 4.56165C11.7951 4.66665 11.4451 4.56165 11.2234 4.31665C11.0017 4.07165 10.9317 3.72165 11.0601 3.40665C11.5384 2.18165 12.7051 1.37665 14.0351 1.37665C15.3651 1.37665 16.5317 2.16998 17.0101 3.40665C17.1267 3.72165 17.0684 4.07165 16.8467 4.31665C16.6717 4.50331 16.4267 4.59665 16.1934 4.59665Z" fill="white"/>
<path d="M14.0233 26.6117C12.8683 26.6117 11.7483 26.145 10.9316 25.3283C10.115 24.5117 9.64832 23.3917 9.64832 22.2367H11.3983C11.3983 22.925 11.6783 23.6017 12.1683 24.0917C12.6583 24.5817 13.335 24.8617 14.0233 24.8617C15.47 24.8617 16.6483 23.6833 16.6483 22.2367H18.3983C18.3983 24.6517 16.4383 26.6117 14.0233 26.6117Z" fill="white"/>
</svg>
