<svg width="12" height="12" viewBox="0 0 12 12" fill="none" xmlns="http://www.w3.org/2000/svg">
<path d="M2.86978 7.99988C2.92478 7.75488 2.82478 7.40488 2.64978 7.22988L1.43478 6.01488C1.05478 5.63488 0.904777 5.22988 1.01478 4.87988C1.12978 4.52988 1.48478 4.28988 2.01478 4.19988L3.57478 3.93988C3.79978 3.89988 4.07478 3.69988 4.17978 3.49488L5.03978 1.76988C5.28978 1.27488 5.62978 0.999878 5.99978 0.999878C6.36978 0.999878 6.70978 1.27488 6.95978 1.76988L7.81978 3.49488C7.88478 3.62488 8.01978 3.74988 8.16478 3.83488L2.77978 9.21988C2.70978 9.28988 2.58978 9.22488 2.60978 9.12488L2.86978 7.99988Z" fill="#E7BC0F"/>
<path d="M9.34957 7.23031C9.16957 7.41032 9.06957 7.75531 9.12957 8.00031L9.47457 9.50532C9.61957 10.1303 9.52957 10.6003 9.21957 10.8253C9.09457 10.9153 8.94457 10.9603 8.76957 10.9603C8.51457 10.9603 8.21457 10.8653 7.88457 10.6703L6.41957 9.80032C6.18957 9.66532 5.80957 9.66532 5.57957 9.80032L4.11457 10.6703C3.55957 10.9953 3.08457 11.0503 2.77957 10.8253C2.66457 10.7403 2.57957 10.6253 2.52457 10.4753L8.60457 4.39531C8.83457 4.16531 9.15957 4.06031 9.47457 4.11531L9.97957 4.20031C10.5096 4.29031 10.8646 4.53032 10.9796 4.88032C11.0896 5.23032 10.9396 5.63531 10.5596 6.01531L9.34957 7.23031Z" fill="#E7BC0F"/>
</svg>
