<svg width="24" height="24" viewBox="0 0 24 24" fill="none" xmlns="http://www.w3.org/2000/svg">
<path fill-rule="evenodd" clip-rule="evenodd" d="M20.2058 9.16015L21.5664 10.7401C22.1566 11.4301 22.157 12.5701 21.5772 13.2601L20.2178 14.8401C19.9579 15.1401 19.7481 15.7101 19.7482 16.1001L19.7488 17.8001C19.7491 18.8601 18.8794 19.7301 17.8194 19.7301H16.1194C15.7194 19.7301 15.1595 19.9401 14.8596 20.2001L13.28 21.5601C12.5802 22.1501 11.4502 22.1501 10.76 21.5601L9.17953 20.2001C8.87944 19.9401 8.30937 19.7301 7.91937 19.7301H6.18936C5.12935 19.7301 4.25905 18.8601 4.25869 17.8001L4.25811 16.0901C4.25798 15.7001 4.04779 15.1401 3.79768 14.8401L2.44713 13.2501C1.8669 12.5601 1.86652 11.4401 2.44628 10.7501L3.79575 9.16015C4.04565 8.86015 4.25546 8.30015 4.25533 7.91015L4.25474 6.20016C4.25438 5.14017 5.12409 4.27017 6.18409 4.27017H7.9141C8.30411 4.27017 8.87404 4.06017 9.17395 3.81017L10.7435 2.44018C11.4433 1.85018 12.5733 1.85018 13.2635 2.44018L14.844 3.80017C15.1441 4.06017 15.7141 4.27017 16.1041 4.27017H17.8042C18.8642 4.27017 19.7345 5.14017 19.7348 6.20016L19.7354 7.90015C19.7355 8.30015 19.9457 8.86015 20.2058 9.16015ZM17.2323 10.6346C17.7412 10.1681 17.7756 9.37738 17.3091 8.86849C16.8426 8.35959 16.0519 8.32521 15.543 8.7917L10.4253 13.483L8.27157 11.3293C7.78342 10.8411 6.99196 10.8411 6.5038 11.3293C6.01565 11.8174 6.01565 12.6089 6.50381 13.097L9.43611 16.0293C9.94719 16.5404 10.7701 16.5583 11.3029 16.0699L17.2323 10.6346Z" fill="#E7BC0F"/>
</svg>
